<svg width="310" height="250" viewBox="0 0 310 250" fill="none" xmlns="http://www.w3.org/2000/svg">
<ellipse cx="224.49" cy="170.068" rx="20.4082" ry="20.4082" transform="rotate(-90 224.49 170.068)" stroke="#0049FA" stroke-width="3" stroke-linecap="round"/>
<path fill-rule="evenodd" clip-rule="evenodd" d="M252.367 137.435C254.073 138.894 255.664 140.485 257.123 142.191C257.93 141.582 258.808 141.061 259.742 140.642C257.977 138.531 256.027 136.58 253.916 134.816C253.497 135.75 252.976 136.627 252.367 137.435ZM270.208 165.757C269.272 166.118 268.287 166.379 267.264 166.527C267.359 167.695 267.408 168.876 267.408 170.068C267.408 171.834 267.301 173.576 267.094 175.287C268.111 175.42 269.093 175.666 270.027 176.011C270.278 174.066 270.408 172.082 270.408 170.068C270.408 168.614 270.34 167.176 270.208 165.757ZM258.715 200.681C257.829 200.189 257.004 199.602 256.253 198.932C254.794 200.536 253.216 202.029 251.531 203.397C252.207 204.135 252.803 204.948 253.305 205.822C255.244 204.257 257.054 202.537 258.715 200.681ZM228.281 215.832C228.047 214.875 227.913 213.878 227.894 212.853C226.771 212.941 225.635 212.986 224.49 212.986C222.763 212.986 221.06 212.884 219.387 212.686C219.38 213.71 219.259 214.708 219.037 215.666C220.825 215.878 222.645 215.986 224.49 215.986C225.766 215.986 227.031 215.934 228.281 215.832ZM194.559 204.892C195.127 204.064 195.785 203.302 196.518 202.62C194.879 201.21 193.347 199.679 191.937 198.039C191.255 198.772 190.493 199.43 189.666 199.999C191.172 201.75 192.808 203.386 194.559 204.892ZM178.892 175.52C179.85 175.299 180.847 175.178 181.871 175.17C181.673 173.497 181.571 171.795 181.571 170.068C181.571 168.922 181.616 167.787 181.704 166.664C180.68 166.644 179.683 166.511 178.726 166.277C178.623 167.527 178.571 168.791 178.571 170.068C178.571 171.913 178.68 173.732 178.892 175.52ZM188.736 141.253C189.609 141.755 190.422 142.35 191.16 143.026C192.528 141.342 194.022 139.764 195.626 138.305C194.956 137.554 194.368 136.729 193.877 135.842C192.021 137.504 190.301 139.313 188.736 141.253ZM218.546 124.531C218.892 125.464 219.138 126.446 219.271 127.464C220.982 127.256 222.723 127.15 224.49 127.15C225.682 127.15 226.863 127.198 228.031 127.294C228.178 126.271 228.439 125.285 228.801 124.349C227.382 124.217 225.944 124.15 224.49 124.15C222.476 124.15 220.492 124.279 218.546 124.531Z" fill="#0049FA"/>
<path fill-rule="evenodd" clip-rule="evenodd" d="M193.621 136.073C194.336 135.423 195.461 135.653 196.034 136.431C198.239 139.419 201.784 141.357 205.782 141.357C212.468 141.357 217.888 135.937 217.888 129.252C217.888 128.324 217.783 127.42 217.586 126.552C217.371 125.608 217.926 124.605 218.887 124.488C219.582 124.404 220.246 124.824 220.419 125.502C220.725 126.701 220.888 127.957 220.888 129.252C220.888 137.594 214.125 144.357 205.782 144.357C200.654 144.357 196.123 141.802 193.393 137.895C192.991 137.32 193.102 136.544 193.621 136.073ZM178.707 166.513C178.65 167.251 179.152 167.922 179.885 168.024C180.567 168.118 181.264 168.167 181.973 168.167C190.315 168.167 197.078 161.404 197.078 153.061C197.078 148.005 194.594 143.53 190.78 140.788C190.179 140.356 189.356 140.492 188.888 141.066C188.302 141.785 188.537 142.846 189.276 143.406C192.194 145.617 194.078 149.119 194.078 153.061C194.078 159.747 188.658 165.167 181.973 165.167C181.509 165.167 181.052 165.141 180.602 165.09C179.68 164.986 178.778 165.588 178.707 166.513ZM189.773 200.124C190.278 200.706 191.146 200.802 191.734 200.304C195.003 197.533 197.078 193.397 197.078 188.776C197.078 180.433 190.315 173.67 181.973 173.67C181.326 173.67 180.689 173.711 180.064 173.79C179.301 173.886 178.785 174.595 178.873 175.36C178.976 176.253 179.847 176.822 180.742 176.732C181.147 176.691 181.557 176.67 181.973 176.67C188.658 176.67 194.078 182.09 194.078 188.776C194.078 192.371 192.511 195.6 190.022 197.817C189.351 198.415 189.185 199.444 189.773 200.124ZM219.198 215.685C219.963 215.772 220.672 215.257 220.768 214.494C220.847 213.869 220.888 213.232 220.888 212.585C220.888 204.243 214.125 197.48 205.782 197.48C201.161 197.48 197.025 199.555 194.254 202.824C193.756 203.411 193.852 204.28 194.434 204.784C195.113 205.373 196.143 205.207 196.741 204.535C198.958 202.047 202.187 200.48 205.782 200.48C212.468 200.48 217.888 205.899 217.888 212.585C217.888 213 217.867 213.411 217.826 213.816C217.736 214.711 218.304 215.582 219.198 215.685ZM253.492 205.67C254.066 205.202 254.202 204.379 253.77 203.778C251.028 199.964 246.552 197.48 241.497 197.48C233.154 197.48 226.391 204.243 226.391 212.585C226.391 213.293 226.44 213.99 226.534 214.673C226.636 215.406 227.307 215.907 228.045 215.851C228.97 215.78 229.572 214.878 229.468 213.956C229.417 213.506 229.391 213.048 229.391 212.585C229.391 205.899 234.811 200.48 241.497 200.48C245.439 200.48 248.941 202.364 251.152 205.282C251.712 206.021 252.773 206.256 253.492 205.67ZM270.07 175.671C270.154 174.976 269.734 174.312 269.056 174.139C267.857 173.833 266.6 173.67 265.306 173.67C256.964 173.67 250.201 180.433 250.201 188.776C250.201 193.904 252.756 198.435 256.663 201.165C257.237 201.567 258.013 201.455 258.485 200.937C259.135 200.221 258.904 199.097 258.127 198.523C255.139 196.319 253.201 192.774 253.201 188.776C253.201 182.09 258.62 176.67 265.306 176.67C266.234 176.67 267.138 176.775 268.006 176.972C268.95 177.187 269.953 176.632 270.07 175.671ZM259.467 140.317C259.032 139.805 258.301 139.658 257.721 139.995C253.224 142.612 250.201 147.484 250.201 153.061C250.201 161.404 256.964 168.167 265.306 168.167C266.669 168.167 267.99 167.986 269.245 167.648C269.893 167.473 270.302 166.846 270.246 166.178C270.162 165.185 269.123 164.596 268.153 164.83C267.24 165.05 266.287 165.167 265.306 165.167C258.62 165.167 253.201 159.747 253.201 153.061C253.201 148.705 255.502 144.886 258.955 142.754C259.802 142.23 260.113 141.075 259.467 140.317ZM228.38 124.312C227.712 124.256 227.084 124.665 226.91 125.312C226.572 126.568 226.391 127.889 226.391 129.252C226.391 137.594 233.154 144.357 241.497 144.357C247.074 144.357 251.946 141.334 254.562 136.837C254.9 136.257 254.752 135.526 254.241 135.09C253.483 134.445 252.327 134.755 251.804 135.603C249.672 139.056 245.853 141.357 241.497 141.357C234.811 141.357 229.391 135.937 229.391 129.252C229.391 128.271 229.508 127.317 229.728 126.404C229.962 125.435 229.373 124.395 228.38 124.312Z" fill="#0049FA"/>
<path d="M96.6871 220.271L50.3774 231.196L60.5603 184.718" stroke="#0049FA" stroke-width="3" stroke-linejoin="round"/>
<path d="M223.134 55.314L241.02 72.9159L97.1711 219.086L79.2852 201.484L223.134 55.314Z" stroke="#0049FA" stroke-width="3" stroke-linecap="round"/>
<rect x="205.247" y="37.7117" width="25.0945" height="205.081" transform="rotate(44.5415 205.247 37.7117)" stroke="#0049FA" stroke-width="3" stroke-linecap="round"/>
<rect width="50.1889" height="15.0518" transform="matrix(0.712743 0.701425 0.701425 -0.712743 205.247 37.7117)" stroke="#0049FA" stroke-width="3" stroke-linecap="round"/>
<path d="M252.895 60.845C264.025 49.5351 265.04 32.486 255.162 22.7648C245.284 13.0435 228.253 14.3314 217.123 25.6412" stroke="#0049FA" stroke-width="3" stroke-linecap="round"/>
<path fill-rule="evenodd" clip-rule="evenodd" d="M154.641 62.934C143.752 63.1438 129.038 67.1995 116.871 75.9629C104.284 85.0294 94.3218 99.229 94.3218 119.41C94.3218 139.491 102.505 151.015 110.401 160.713C111.076 161.543 111.745 162.356 112.404 163.155C119.482 171.753 125.334 178.862 125.334 190.199C125.334 191.607 126.476 192.75 127.885 192.75H181.973C182.146 192.75 182.32 192.75 182.493 192.75C183.902 192.75 185.044 191.607 185.044 190.199C185.044 178.862 190.895 171.754 197.973 163.156C198.632 162.356 199.301 161.543 199.977 160.713C207.873 151.015 216.056 139.491 216.056 119.41C216.056 99.229 206.094 85.0294 193.506 75.9629C181.34 67.1995 166.626 63.1438 155.737 62.934C155.667 62.9283 155.597 62.9254 155.526 62.9254C155.414 62.9254 155.302 62.9258 155.189 62.9266C155.076 62.9258 154.964 62.9254 154.852 62.9254C154.781 62.9254 154.71 62.9283 154.641 62.934Z" fill="#080816"/>
<path d="M154.85 65.4764C175.749 65.4764 213.503 80.9824 213.503 119.41C213.503 157.838 182.491 163.232 182.491 190.199" stroke="#0049FA" stroke-width="3" stroke-linecap="round"/>
<path d="M155.524 65.4764C134.625 65.4764 96.8713 80.9824 96.8713 119.41C96.8713 157.838 127.883 163.232 127.883 190.199" stroke="#0049FA" stroke-width="3" stroke-linecap="round"/>
<line x1="127.35" y1="205.983" x2="182.173" y2="205.983" stroke="#0049FA" stroke-width="3" stroke-linecap="round"/>
<line x1="140.956" y1="233.194" x2="170.268" y2="233.194" stroke="#0049FA" stroke-width="3" stroke-linecap="round"/>
<line x1="134.153" y1="219.588" x2="177.071" y2="219.588" stroke="#0049FA" stroke-width="3" stroke-linecap="round"/>
<path d="M153.911 184.524V164.864C153.911 162.103 151.673 159.864 148.911 159.864H139.354C136.592 159.864 134.354 157.625 134.354 154.864V150.408C134.354 147.647 136.592 145.408 139.354 145.408H176.973C179.734 145.408 181.973 143.17 181.973 140.408V135.952C181.973 133.191 179.734 130.952 176.973 130.952H146.156C143.395 130.952 141.156 128.714 141.156 125.952V108.844" stroke="#0049FA" stroke-width="3" stroke-linecap="round"/>
<path fill-rule="evenodd" clip-rule="evenodd" d="M158.163 113.924C158.445 113.938 158.728 113.946 159.014 113.946C167.937 113.946 175.17 106.712 175.17 97.7891C175.17 89.1123 168.33 82.033 159.748 81.6491C159.825 80.8035 159.864 79.9472 159.864 79.0816C159.864 63.5839 147.301 51.0204 131.803 51.0204C128.679 51.0204 125.674 51.5309 122.867 52.4731C118.041 42.5519 107.863 35.7143 96.0885 35.7143C79.6515 35.7143 66.3266 49.0392 66.3266 65.4762C66.3266 68.1713 66.6849 70.7828 67.3563 73.2656C57.2025 74.4407 49.3198 83.0685 49.3198 93.5374C49.3198 104.809 58.4569 113.946 69.728 113.946H158.163V113.924Z" fill="#080816"/>
<path d="M158.163 113.924L158.241 112.426L156.663 112.344V113.924H158.163ZM159.748 81.6491L158.254 81.5136L158.112 83.0774L159.681 83.1476L159.748 81.6491ZM122.867 52.4731L121.518 53.1293L122.095 54.3146L123.344 53.8951L122.867 52.4731ZM67.3563 73.2656L67.5288 74.7556L69.2591 74.5554L68.8043 72.874L67.3563 73.2656ZM158.163 113.946V115.446H159.663V113.946H158.163ZM159.014 112.446C158.754 112.446 158.497 112.439 158.241 112.426L158.086 115.422C158.393 115.438 158.703 115.446 159.014 115.446V112.446ZM173.67 97.7891C173.67 105.884 167.108 112.446 159.014 112.446V115.446C168.765 115.446 176.67 107.541 176.67 97.7891H173.67ZM159.681 83.1476C167.465 83.4958 173.67 89.9183 173.67 97.7891H176.67C176.67 88.3063 169.195 80.5702 159.815 80.1506L159.681 83.1476ZM158.364 79.0816C158.364 79.9019 158.327 80.713 158.254 81.5136L161.242 81.7846C161.323 80.894 161.364 79.9925 161.364 79.0816H158.364ZM131.803 52.5204C146.472 52.5204 158.364 64.4123 158.364 79.0816H161.364C161.364 62.7554 148.129 49.5204 131.803 49.5204V52.5204ZM123.344 53.8951C125.999 53.0039 128.843 52.5204 131.803 52.5204V49.5204C128.514 49.5204 125.348 50.0579 122.39 51.0511L123.344 53.8951ZM96.0885 37.2143C107.267 37.2143 116.933 43.7046 121.518 53.1293L124.216 51.8169C119.148 41.3993 108.459 34.2143 96.0885 34.2143V37.2143ZM67.8266 65.4762C67.8266 49.8676 80.4799 37.2143 96.0885 37.2143V34.2143C78.8231 34.2143 64.8266 48.2107 64.8266 65.4762H67.8266ZM68.8043 72.874C68.1671 70.5177 67.8266 68.0379 67.8266 65.4762H64.8266C64.8266 68.3048 65.2027 71.0479 65.9084 73.6572L68.8043 72.874ZM50.8198 93.5374C50.8198 83.839 58.1229 75.8442 67.5288 74.7556L67.1839 71.7755C56.2822 73.0372 47.8198 82.298 47.8198 93.5374H50.8198ZM69.728 112.446C59.2853 112.446 50.8198 103.98 50.8198 93.5374H47.8198C47.8198 105.637 57.6284 115.446 69.728 115.446V112.446ZM158.163 112.446H69.728V115.446H158.163V112.446ZM156.663 113.924V113.946H159.663V113.924H156.663Z" fill="#0049FA"/>
</svg>
