<svg width="253" height="250" viewBox="0 0 253 250" fill="none" xmlns="http://www.w3.org/2000/svg">
<rect x="74.2812" y="153.889" width="30.872" height="76.2721" rx="5" transform="rotate(45 74.2812 153.889)" stroke="#0049FA" stroke-width="3"/>
<rect x="59.7024" y="168.467" width="30.872" height="12.3785" transform="rotate(45 59.7024 168.467)" stroke="#0049FA" stroke-width="3"/>
<line x1="85.8065" y1="168.34" x2="93.6124" y2="160.534" stroke="#0049FA" stroke-width="3"/>
<mask id="mask0_511_18" style="mask-type:alpha" maskUnits="userSpaceOnUse" x="79" y="29" width="145" height="145">
<circle cx="151.487" cy="101.637" r="70.2524" fill="#080816" stroke="#0049FA" stroke-width="3"/>
</mask>
<g mask="url(#mask0_511_18)">
<rect x="102.861" y="95.1685" width="23.608" height="87.1681" rx="2" stroke="#0049FA" stroke-width="3"/>
<rect x="126.469" y="69.7447" width="23.608" height="112.592" rx="2" stroke="#0049FA" stroke-width="3"/>
<rect x="150.077" y="44.3194" width="23.608" height="138.016" rx="2" stroke="#0049FA" stroke-width="3"/>
<rect x="173.685" y="18.8955" width="23.608" height="163.44" rx="2" fill="#080816" stroke="#0049FA" stroke-width="3"/>
</g>
<circle cx="151.272" cy="101.744" r="69.7674" stroke="#0049FA" stroke-width="3"/>
<circle cx="151.272" cy="101.744" r="81.3953" stroke="#0049FA" stroke-width="3"/>
<path d="M173.074 20.8954C173.074 19.7908 173.97 18.8954 175.074 18.8954H195.784C196.888 18.8954 197.784 19.7908 197.784 20.8954L197.783 152.832C197.783 153.437 197.502 154.017 197.028 154.394C185.033 163.943 180.208 165.364 174.516 167.935C173.845 168.238 173.074 167.752 173.074 167.016V20.8954Z" fill="#080816"/>
<path d="M174.516 167.935L173.898 166.568L174.516 167.935ZM197.783 152.832L196.283 152.832L197.783 152.832ZM197.028 154.394L197.962 155.568L197.028 154.394ZM197.784 20.8954L196.284 20.8954L197.784 20.8954ZM175.074 20.3954H195.784V17.3954H175.074V20.3954ZM196.284 20.8954L196.283 152.832L199.283 152.832L199.284 20.8954L196.284 20.8954ZM196.094 153.22C190.145 157.956 186.012 160.646 182.688 162.465C179.338 164.299 176.828 165.245 173.898 166.568L175.133 169.302C177.895 168.054 180.644 167.004 184.128 165.097C187.639 163.176 191.916 160.381 197.962 155.568L196.094 153.22ZM174.574 167.016V20.8954H171.574V167.016H174.574ZM173.898 166.568C174.194 166.434 174.574 166.634 174.574 167.016H171.574C171.574 168.87 173.496 170.041 175.133 169.302L173.898 166.568ZM196.283 152.832C196.283 152.977 196.213 153.126 196.094 153.22L197.962 155.568C198.791 154.908 199.283 153.898 199.283 152.832L196.283 152.832ZM195.784 20.3954C196.06 20.3954 196.284 20.6192 196.284 20.8954L199.284 20.8954C199.284 18.9624 197.717 17.3954 195.784 17.3954V20.3954ZM175.074 17.3954C173.141 17.3954 171.574 18.9623 171.574 20.8954H174.574C174.574 20.6192 174.798 20.3954 175.074 20.3954V17.3954Z" fill="#0049FA"/>
</svg>
